<?xml version="1.0" encoding="UTF-8"?>
<svg width="512px" height="512px" viewBox="0 0 512 512" version="1.1" xmlns="http://www.w3.org/2000/svg" xmlns:xlink="http://www.w3.org/1999/xlink">
    <title>iOS</title>
    <defs>
        <linearGradient x1="50%" y1="0%" x2="50%" y2="100%" id="linearGradient-1">
            <stop stop-color="#07A090" offset="0%"></stop>
            <stop stop-color="#24C3B2" offset="100%"></stop>
        </linearGradient>
    </defs>
    <g id="iOS" stroke="none" stroke-width="1" fill="none" fill-rule="evenodd">
        <path d="M146.141456,0 L365.858544,0 C416.675112,0 435.102427,5.29105984 453.680205,15.2265641 C472.257983,25.1620684 486.837932,39.7420171 496.773436,58.3197949 C506.70894,76.8975727 512,95.3248882 512,146.141456 L512,365.858544 C512,416.675112 506.70894,435.102427 496.773436,453.680205 C486.837932,472.257983 472.257983,486.837932 453.680205,496.773436 C435.102427,506.70894 416.675112,512 365.858544,512 L146.141456,512 C95.3248882,512 76.8975727,506.70894 58.3197949,496.773436 C39.7420171,486.837932 25.1620684,472.257983 15.2265641,453.680205 C5.29105984,435.102427 0,416.675112 0,365.858544 L0,146.141456 C0,95.3248882 5.29105984,76.8975727 15.2265641,58.3197949 C25.1620684,39.7420171 39.7420171,25.1620684 58.3197949,15.2265641 C76.8975727,5.29105984 95.3248882,0 146.141456,0 Z" id="colorBg" fill="url(#linearGradient-1)" fill-rule="nonzero"></path>
        <path d="M358.831013,460.299194 C343.663437,457.771265 326.915906,446.079592 321.544056,434.229923 C317.436171,425.224175 317.594166,410.214595 322.018043,401.208847 L325.33595,394.099046 L314.434255,382.091382 C308.430423,375.297572 299.898661,365.975832 295.474785,361.077969 L287.575006,352.230217 L282.835139,355.548124 C273.197408,362.341934 264.349656,365.659841 253.921947,366.607815 C234.1725,368.18777 215.687017,359.656009 204.311335,343.382464 C198.307503,334.692707 198.307503,334.692707 190.723715,335.166694 C175.240148,336.272663 165.286427,330.742818 165.286427,320.947092 C165.286427,312.257335 174.450171,297.247755 183.297923,291.085927 C186.457835,289.031985 188.827768,286.662051 188.511777,286.030069 C188.353782,285.240091 183.455919,283.186148 177.768078,281.290201 C163.548476,276.392338 150.592838,268.334564 141.58709,258.380842 C132.581342,248.743112 125.787532,235.313487 125.787532,227.413708 C125.787532,224.253797 125.471541,221.725868 124.997554,221.725868 C124.523567,221.725868 120.415682,223.621815 115.83381,225.991748 C109.355992,229.15166 105.564098,230.099633 97.6643186,229.941638 L87.8685926,229.783642 L81.2327782,238.78939 C71.1210611,252.850997 64.1692555,259.486811 58.3234191,260.59278 C41.7338831,263.752692 33.6761086,250.639059 42.8398522,235.155492 C44.8937948,231.521594 51.6876047,224.411792 57.6914368,219.355934 C67.8031539,211.140164 68.7511274,209.876199 67.6451583,206.084305 C65.2752246,197.552544 66.6971848,184.912897 70.8050699,176.697127 C74.912955,168.797348 84.5506854,158.527635 93.3984379,152.681799 C101.298217,147.467945 128.157466,136.408254 137.479205,134.512307 C145.536979,132.932351 146.326957,132.458365 145.378984,129.456449 C144.747001,127.560502 143.641032,125.348564 142.851055,124.242595 C140.955108,121.872661 139.375152,106.073103 140.481121,101.333235 C141.745085,96.2773768 151.382816,86.4816508 158.650613,82.8477525 C172.396228,76.0539425 186.141844,74.1579956 224.53477,74 C258.661815,74 261.505735,74.1579956 271.617452,77.6338983 C277.463289,79.6878409 284.257099,83.0057481 286.627033,84.901695 C288.996966,86.6396464 295.158794,91.0635227 300.214653,94.5394254 C313.486281,103.387178 329.759826,123.136625 338.607579,140.674135 C344.453415,152.523803 345.875375,157.105675 346.665353,166.269419 L347.455331,177.645101 L351.247225,174.959176 C364.99284,165.953428 395.169996,163.109507 411.443541,169.271335 C436.248847,178.75107 451.100432,201.028447 449.204485,225.833753 C446.834551,257.116878 422.345236,280.026237 391.062111,280.184232 C375.262553,280.184232 353.459163,272.442449 334.815685,259.960798 C330.233813,256.958882 325.967932,254.904939 325.493945,255.378926 C324.545972,256.3269 345.875375,279.078263 368.152752,300.723658 L381.898368,314.153282 L392.800063,313.5213 C405.7557,313.047313 414.129466,316.207225 423.29321,325.370968 C437.828803,339.748566 441.936688,356.338102 435.458869,374.191603 C433.720918,379.405457 429.929024,390.781138 427.401095,399.3129 C422.029245,417.1664 415.709422,427.594109 401.015833,443.235671 C386.954226,458.087256 374.788566,462.985119 358.831013,460.299194 Z" id="mickey" fill="#FFFFFF" fill-rule="nonzero" transform="translate(244.1834, 267.5) scale(1, -1) translate(-244.1834, -267.5)"></path>
    </g>
</svg>