<?xml version="1.0" standalone="no"?>
<!DOCTYPE svg PUBLIC "-//W3C//DTD SVG 20010904//EN"
 "http://www.w3.org/TR/2001/REC-SVG-20010904/DTD/svg10.dtd">
<svg version="1.0" xmlns="http://www.w3.org/2000/svg"
 width="330.000000pt" height="258.000000pt" viewBox="0 0 330.000000 258.000000"
 preserveAspectRatio="xMidYMid meet">

<g transform="translate(0.000000,258.000000) scale(0.100000,-0.100000)"
fill="#000000" stroke="none">
<path d="M2415 2520 c-96 -16 -202 -90 -236 -165 -26 -57 -25 -152 3 -209 l21
-45 -69 -76 c-38 -43 -92 -102 -120 -133 l-50 -56 -30 21 c-61 43 -117 64
-183 70 -125 10 -242 -44 -314 -147 -38 -55 -38 -55 -86 -52 -98 7 -161 -28
-161 -90 0 -55 58 -150 114 -189 20 -13 35 -28 33 -32 -1 -5 -32 -18 -68 -30
-90 -31 -172 -82 -229 -145 -57 -61 -100 -146 -100 -196 0 -20 -2 -36 -5 -36
-3 0 -29 12 -58 27 -41 20 -65 26 -115 25 l-62 -1 -42 57 c-64 89 -108 131
-145 138 -105 20 -156 -63 -98 -161 13 -23 56 -68 94 -100 64 -52 70 -60 63
-84 -15 -54 -6 -134 20 -186 26 -50 87 -115 143 -152 50 -33 220 -103 279
-115 51 -10 56 -13 50 -32 -4 -12 -11 -26 -16 -33 -12 -15 -22 -115 -15 -145
8 -32 69 -94 115 -117 87 -43 174 -55 417 -56 216 0 234 1 298 23 37 13 80 34
95 46 15 11 54 39 86 61 84 56 187 181 243 292 37 75 46 104 51 162 l5 72 24
-17 c87 -57 278 -75 381 -36 157 60 251 201 239 358 -15 198 -170 343 -368
344 -100 0 -238 -49 -356 -128 -29 -19 -56 -32 -59 -29 -6 6 129 150 270 287
l87 85 69 -4 c82 -3 135 17 193 75 92 91 118 196 77 309 -11 33 -35 105 -51
159 -34 113 -74 179 -167 278 -89 94 -166 125 -267 108z"/>
</g>
</svg>
